  http://www.scenespeeds.com/

  |  | |  | |  | 
   |/\| |/\| |/\|,
   ~  ~ ~  ~ ~  ~~
                  
   _, __,  _, ___,
  / ` |_) /_\ ` / 
  \ , | \ | |  /  
   ~  ~ ~ ~ ~ ~~~ 
                  
 , _    ___  _, __,
 \ |     |  / \ |_)
  \| ~~  |  \ / | \
   )     ~   ~  ~ ~
  ~'               
  __, __, _, _ ___ 
  |_) |_  |\ |  |  
  | \ |   | \|  | ,
  ~ ~ ~~~ ~  ~  ~ ~
                   
     _,  _, _, _
    / ` / \ |\/|
    \ , \ / |  |
     ~   ~  ~  ~

Description

Video
ID : 0
Format : MPEG-4 Visual
Format profile : Advanced Simple@L5
Format settings, BVOP : 2
Format settings, QPel : No
Format settings, GMC : No warppoints
Format settings, Matrix : Default (H.263)
Muxing mode : Packed bitstream
Codec ID : XVID
Codec ID/Hint : XviD
Duration : 1h 41mn
Bit rate : 1 791 Kbps
Width : 720 pixels
Height : 304 pixels
Display aspect ratio : 2.35:1
Frame rate : 25.000 fps
Color space : YUV
Chroma subsampling : 4:2:0
Bit depth : 8 bits
Scan type : Progressive
Compression mode : Lossy
Bits/(Pixel*Frame) : 0.327
Stream size : 1.27 GiB (93%)
Writing library : XviD 64

Audio
ID : 1
Format : MPEG Audio
Format version : Version 1
Format profile : Layer 3
Mode : Joint stereo
Mode extension : MS Stereo
Codec ID : 55
Codec ID/Hint : MP3
Duration : 1h 41mn
Bit rate mode : Constant
Bit rate : 128 Kbps
Channel(s) : 2 channels
Sampling rate : 44.1 KHz
Compression mode : Lossy
Stream size : 93.2 MiB (7%)
Alignment : Split accross interleaves
Interleave, duration : 40 ms (1.00 video frame) 
http://www.imdb.com/title/tt1637688/

in the not-too-distant future the aging gene has been switched off. To avoid overpopulation, time has become the currency and the way people pay for luxuries and necessities. The rich can live forever, while the rest try to negotiate for their immortality. A poor young man who comes into a fortune of time, though too late to help his mother from dying. He ends up on the run from a corrupt police force known as 'time keepers'.



 
http://www.scenespeeds.com/